<svg xmlns="http://www.w3.org/2000/svg" viewBox="0 0 32 32" fill="none">
  <defs>
    <linearGradient id="g" x1="0" y1="0" x2="32" y2="32" gradientUnits="userSpaceOnUse">
      <stop offset="0" stop-color="#7C7FF5"/>
      <stop offset="1" stop-color="#4338CA"/>
    </linearGradient>
  </defs>
  <rect width="32" height="32" rx="8" fill="url(#g)"/>
  <path d="M21.6 11.2c-.4-1.4-1.7-2.4-3.6-2.4-2 0-3.4 1-3.4 2.5 0 1.4 1 2.1 3.2 2.6l1.4.3c3.8.8 5.4 2.3 5.4 5 0 3.2-2.5 5.4-6.6 5.4-3.9 0-6.6-2-7-5.1h3.5c.3 1.6 1.6 2.4 3.5 2.4 2.1 0 3.5-1 3.5-2.6 0-1.4-.9-2.1-3.1-2.6l-1.6-.4c-3.6-.8-5.2-2.3-5.2-5 0-3.1 2.6-5.3 6.4-5.3 3.6 0 6 2 6.3 4.8h-2.7z" fill="#fff"/>
</svg>
